<?xml version="1.0" encoding="utf-8"?>
<!-- Generator: Adobe Illustrator 28.2.0, SVG Export Plug-In . SVG Version: 6.00 Build 0)  -->
<svg version="1.1" id="Capa_1" xmlns="http://www.w3.org/2000/svg" xmlns:xlink="http://www.w3.org/1999/xlink" x="0px" y="0px"
	 viewBox="0 0 1400 1400" style="enable-background:new 0 0 1400 1400;" xml:space="preserve">
<style type="text/css">
	.st0{fill:#F0F0F0;}
	.st1{fill:#26CAC9;}
	.st2{fill:#3C3C3C;}
</style>
<g id="Capa_2_00000155843159386344013510000009019668464728878490_">
	<rect x="-0.3" y="0" class="st0" width="1400" height="1400"/>
</g>
<g id="Capa_2_00000172427631183256159410000007914858095241267109_">
</g>
<g id="Capa_3">
</g>
<g>
	<g>
		<path class="st1" d="M501.3,141.3h-6.8l-34.4-46.5v46.5h-6.8l-0.1-57.2h6.8l34.6,46.5l0.1-46.5h6.8L501.3,141.3z"/>
		<path class="st1" d="M563.2,141.3l-8-17.7h-29l-8,17.7h-7.3l26-57.2h7.5l26,57.2H563.2z M552.6,117.7l-12-26.4l-11.8,26.4H552.6z"
			/>
		<path class="st1" d="M595.5,90.5v50.8h-6.8V90.5h-20v-6.4h47.1v6.4H595.5z"/>
		<path class="st1" d="M666,141.3l-8-17.7h-29l-8,17.7h-7.3l26-57.2h7.5l26,57.2H666z M655.5,117.7l-12-26.4l-11.8,26.4H655.5z"/>
		<path class="st1" d="M739.2,90.7c-2.4-1.4-5.9-2.2-10.5-2.2c-3.5,0-6.4,0.4-8.9,1.3s-4.3,2.1-5.5,3.6s-1.8,3.1-1.8,4.9
			c0,1.7,0.4,3.2,1.3,4.4c0.9,1.2,2.1,2.1,3.7,2.9c1.6,0.7,3.6,1.3,6.1,1.8l10.5,2.1c6.2,1.1,10.7,3,13.6,5.6
			c2.9,2.6,4.3,5.9,4.3,9.9c0,3.1-0.9,6.1-2.6,8.8c-1.7,2.7-4.3,5-7.9,6.7c-3.6,1.7-7.9,2.6-13,2.6c-6.7,0-11.9-1.2-15.7-3.7
			s-6.3-5.5-7.4-9.1l6.5-1.9c0.8,2.3,2.5,4.3,5.2,5.9c2.6,1.6,6.5,2.4,11.6,2.4c3.6,0,6.6-0.5,9.1-1.6s4.3-2.5,5.5-4.3
			s1.8-3.7,1.8-5.7c0-1.6-0.4-3-1.3-4.2c-0.8-1.2-2.1-2.3-3.9-3.2c-1.8-0.9-4-1.6-6.6-2.1l-10.2-1.9c-6.1-1.2-10.5-2.9-13.3-5.3
			s-4.2-5.7-4.2-10c0-2.9,0.9-5.6,2.6-8.1c1.8-2.4,4.4-4.4,7.9-5.9s7.7-2.2,12.7-2.2c6.1,0,11,1.1,14.6,3.4s6.1,5,7.6,8.3l-6.7,1.9
			C743.3,93.9,741.6,92.1,739.2,90.7z"/>
		<path class="st1" d="M809.3,141.3l-8-17.7h-29l-8,17.7H757l26-57.2h7.5l26,57.2H809.3z M798.8,117.7l-12-26.4L775,117.7H798.8z"/>
		<path class="st1" d="M874.3,141.3h-6.8L833,94.9v46.5h-6.8l-0.1-57.2h6.8l34.6,46.5l0.1-46.5h6.8L874.3,141.3z"/>
		<path class="st1" d="M919.3,90.7c-2.4-1.4-5.9-2.2-10.5-2.2c-3.5,0-6.4,0.4-8.9,1.3s-4.3,2.1-5.5,3.6s-1.8,3.1-1.8,4.9
			c0,1.7,0.4,3.2,1.3,4.4c0.9,1.2,2.1,2.1,3.7,2.9c1.6,0.7,3.6,1.3,6.1,1.8l10.5,2.1c6.2,1.1,10.7,3,13.6,5.6
			c2.9,2.6,4.3,5.9,4.3,9.9c0,3.1-0.9,6.1-2.6,8.8c-1.7,2.7-4.3,5-7.9,6.7c-3.6,1.7-7.9,2.6-13,2.6c-6.7,0-11.9-1.2-15.7-3.7
			s-6.3-5.5-7.4-9.1l6.5-1.9c0.8,2.3,2.5,4.3,5.2,5.9c2.6,1.6,6.5,2.4,11.6,2.4c3.6,0,6.6-0.5,9.1-1.6s4.3-2.5,5.5-4.3
			s1.8-3.7,1.8-5.7c0-1.6-0.4-3-1.3-4.2c-0.8-1.2-2.1-2.3-3.9-3.2c-1.8-0.9-4-1.6-6.6-2.1l-10.2-1.9c-6.1-1.2-10.5-2.9-13.3-5.3
			s-4.2-5.7-4.2-10c0-2.9,0.9-5.6,2.6-8.1c1.8-2.4,4.4-4.4,7.9-5.9s7.7-2.2,12.7-2.2c6.1,0,11,1.1,14.6,3.4s6.1,5,7.6,8.3l-6.7,1.9
			C923.5,93.9,921.8,92.1,919.3,90.7z"/>
		<path class="st1" d="M507.8,177.9v50.8H501v-50.8h-20v-6.4h47v6.4H507.8z"/>
		<path class="st1" d="M552.4,228.7v-27.8l-20.3-29.4h7.6l16,23.6l16-23.6h7.8l-20.4,29.4v27.8H552.4z"/>
		<path class="st1" d="M628,176c3.1,3,4.6,7.4,4.6,13.2c0,5.7-1.5,10.1-4.6,13.2c-3.1,3.1-8.6,4.6-16.7,4.6h-16.5v21.7H588v-57.2
			h23.3C619.4,171.5,625,173,628,176z M594.8,177.5V201h15.7c4.2,0,7.3-0.5,9.5-1.5s3.7-2.4,4.5-4c0.8-1.7,1.2-3.8,1.2-6.2
			c0-2.5-0.4-4.6-1.2-6.2c-0.8-1.7-2.3-3-4.5-4s-5.4-1.5-9.5-1.5h-15.7V177.5z"/>
		<path class="st1" d="M651.9,177.9v17.9h29v6h-29v20.5h32.4v6.4H645v-57.2h37.5v6.4L651.9,177.9L651.9,177.9z"/>
		<path class="st1" d="M700.5,177.9v17.9h28.7v6h-28.7v26.9h-6.8v-57.2h37.5v6.4L700.5,177.9L700.5,177.9z"/>
		<path class="st1" d="M788.4,228.7l-8-17.7h-29l-8,17.7h-7.3l26-57.2h7.5l26,57.2H788.4z M777.8,205.1l-12-26.4L754,205.1H777.8z"
			/>
		<path class="st1" d="M841.1,226.2c-3.9,2.3-8.5,3.5-13.9,3.5c-5.7,0-10.5-1.2-14.4-3.7c-4-2.5-7-5.9-9-10.4s-3-9.7-3-15.6
			c0-5.9,1-11.1,3-15.6s5-8,9-10.4c4-2.5,8.8-3.7,14.4-3.7c5.3,0,9.9,1.2,13.8,3.5c3.9,2.3,6.9,5.6,9.1,9.7l-6.9,1.8
			c-1.1-1.7-2.4-3.2-3.9-4.5s-3.3-2.3-5.3-3s-4.2-1.1-6.7-1.1c-4.3,0-7.9,1-10.8,2.9c-2.9,2-5.1,4.7-6.5,8.2s-2.2,7.6-2.2,12.2
			c0,4.7,0.7,8.8,2.2,12.3c1.4,3.5,3.6,6.2,6.5,8.2s6.5,2.9,10.8,2.9c2.5,0,4.7-0.4,6.8-1.1c2-0.7,3.8-1.7,5.3-3s2.8-2.8,3.9-4.6
			l6.8,1.7C848,220.6,845,223.9,841.1,226.2z"/>
		<path class="st1" d="M868.4,177.9v17.9h29v6h-29v20.5h32.4v6.4h-39.3v-57.2H899v6.4L868.4,177.9L868.4,177.9z"/>
	</g>
</g>
<g>
	<g>
		<path class="st1" d="M553.3,1183.5c3.1,3,4.6,7.4,4.6,13.2c0,5.7-1.5,10.1-4.6,13.2s-8.6,4.6-16.7,4.6h-16.5v21.7h-6.8V1179h23.3
			C544.6,1178.9,550.2,1180.5,553.3,1183.5z M520.1,1184.9v23.6h15.7c4.2,0,7.3-0.5,9.5-1.5s3.7-2.4,4.5-4c0.8-1.7,1.2-3.8,1.2-6.2
			c0-2.5-0.4-4.6-1.2-6.2c-0.8-1.7-2.3-3-4.5-4s-5.4-1.5-9.5-1.5h-15.7V1184.9z"/>
		<path class="st1" d="M609.6,1236.2l-8-17.7h-29l-8,17.7h-7.3l26-57.2h7.5l26,57.2H609.6z M599,1212.6l-12-26.4l-11.8,26.4H599z"/>
		<path class="st1" d="M655.9,1185.5c-2.4-1.4-5.9-2.2-10.5-2.2c-3.5,0-6.4,0.4-8.9,1.3s-4.3,2.1-5.5,3.6s-1.8,3.1-1.8,4.9
			c0,1.7,0.4,3.2,1.3,4.4c0.9,1.2,2.1,2.1,3.7,2.9c1.6,0.7,3.6,1.3,6.1,1.8l10.5,2.1c6.2,1.1,10.7,3,13.6,5.6
			c2.9,2.6,4.3,5.9,4.3,9.9c0,3.1-0.9,6.1-2.6,8.8c-1.7,2.7-4.3,5-7.9,6.7c-3.6,1.7-7.9,2.6-13,2.6c-6.7,0-11.9-1.2-15.7-3.7
			s-6.3-5.5-7.4-9.1l6.5-1.9c0.8,2.3,2.5,4.3,5.2,5.9c2.6,1.6,6.5,2.4,11.6,2.4c3.6,0,6.6-0.5,9.1-1.6s4.3-2.5,5.5-4.3
			s1.8-3.7,1.8-5.7c0-1.6-0.4-3-1.3-4.2c-0.8-1.2-2.1-2.3-3.9-3.2c-1.8-0.9-4-1.6-6.6-2.1l-10.2-1.9c-6.1-1.2-10.5-2.9-13.3-5.3
			s-4.2-5.7-4.2-10c0-2.9,0.9-5.6,2.6-8.1c1.8-2.4,4.4-4.4,7.9-5.9s7.7-2.2,12.7-2.2c6.1,0,11,1.1,14.6,3.4s6.1,5,7.6,8.3l-6.7,1.9
			C660,1188.7,658.3,1187,655.9,1185.5z"/>
		<path class="st1" d="M710.2,1185.5c-2.4-1.4-5.9-2.2-10.5-2.2c-3.5,0-6.4,0.4-8.9,1.3s-4.3,2.1-5.5,3.6s-1.8,3.1-1.8,4.9
			c0,1.7,0.4,3.2,1.3,4.4c0.9,1.2,2.1,2.1,3.7,2.9c1.6,0.7,3.6,1.3,6.1,1.8l10.5,2.1c6.2,1.1,10.7,3,13.6,5.6
			c2.9,2.6,4.3,5.9,4.3,9.9c0,3.1-0.9,6.1-2.6,8.8c-1.7,2.7-4.3,5-7.9,6.7c-3.6,1.7-7.9,2.6-13,2.6c-6.7,0-11.9-1.2-15.7-3.7
			s-6.3-5.5-7.4-9.1l6.5-1.9c0.8,2.3,2.5,4.3,5.2,5.9c2.6,1.6,6.5,2.4,11.6,2.4c3.6,0,6.6-0.5,9.1-1.6s4.3-2.5,5.5-4.3
			s1.8-3.7,1.8-5.7c0-1.6-0.4-3-1.3-4.2c-0.8-1.2-2.1-2.3-3.9-3.2c-1.8-0.9-4-1.6-6.6-2.1l-10.2-1.9c-6.1-1.2-10.5-2.9-13.3-5.3
			s-4.2-5.7-4.2-10c0-2.9,0.9-5.6,2.6-8.1c1.8-2.4,4.4-4.4,7.9-5.9s7.7-2.2,12.7-2.2c6.1,0,11,1.1,14.6,3.4s6.1,5,7.6,8.3l-6.7,1.9
			C714.3,1188.7,712.6,1187,710.2,1185.5z"/>
		<path class="st1" d="M734,1236.2V1179h6.8v57.2H734z"/>
		<path class="st1" d="M765,1233.3c-4.3-2.5-7.5-5.9-9.7-10.4c-2.2-4.4-3.3-9.6-3.3-15.5c0-5.8,1.1-11,3.3-15.4s5.4-7.9,9.7-10.4
			s9.5-3.8,15.7-3.8c6.1,0,11.3,1.3,15.6,3.8s7.5,6,9.7,10.4s3.3,9.6,3.3,15.4c0,5.9-1.1,11.1-3.3,15.5s-5.4,7.9-9.6,10.4
			c-4.2,2.5-9.5,3.7-15.6,3.7C774.5,1237,769.2,1235.8,765,1233.3z M792.6,1227.7c3.2-1.9,5.6-4.6,7.2-8.1c1.6-3.5,2.4-7.5,2.4-12.1
			s-0.8-8.6-2.4-12c-1.6-3.5-4-6.2-7.2-8.1s-7.2-2.9-12-2.9s-8.8,1-12,2.9s-5.6,4.6-7.2,8.1c-1.6,3.5-2.4,7.5-2.4,12
			c0,4.6,0.8,8.7,2.4,12.1c1.6,3.5,4,6.2,7.2,8.1s7.3,2.9,12,2.9C785.4,1230.6,789.4,1229.6,792.6,1227.7z"/>
		<path class="st1" d="M868.5,1236.2h-6.8l-34.4-46.5v46.5h-6.8l-0.1-57.2h6.8l34.6,46.5l0.1-46.5h6.8L868.5,1236.2z"/>
		<path class="st1" d="M445.9,1316.1c-1.7,2.6-4.2,4.7-7.6,6.2s-7.3,2.3-11.9,2.3c-4.8,0-8.9-0.8-12.2-2.3c-3.3-1.5-5.8-3.6-7.5-6.3
			c-1.7-2.7-2.5-5.7-2.5-9.1c0-3.2,0.8-6.1,2.4-8.5c1.6-2.5,3.9-4.3,6.9-5.6c-2.5-1.3-4.4-2.9-5.7-5c-1.3-2.1-2-4.4-2-7
			c0-3,0.8-5.7,2.4-8.1s4-4.2,7-5.6c3.1-1.4,6.8-2,11.1-2c2.8,0,5.3,0.3,7.7,0.9c2.3,0.6,4.4,1.5,6.1,2.6s3.1,2.4,4.2,4l-6.2,3.4
			c-1-1.4-2.6-2.5-4.6-3.3s-4.4-1.1-7.2-1.1c-4.3,0-7.7,0.9-10,2.6s-3.5,4.1-3.5,7c0,1.7,0.5,3.3,1.5,4.7c1,1.4,2.5,2.5,4.6,3.3
			s4.5,1.2,7.4,1.2h28.8v5.9h-6.7v10.8C448.5,1310.5,447.6,1313.5,445.9,1316.1z M413,1312.6c1.2,1.6,2.9,2.9,5.2,3.9
			c2.3,1,5,1.5,8.3,1.5c4,0,7.6-0.9,10.6-2.8c3-1.8,4.6-4.6,4.6-8.1v-10.8h-15.3c-4.9,0-8.6,1-11.3,3.1c-2.7,2.1-4,4.7-4,7.8
			C411.2,1309.2,411.8,1311,413,1312.6z"/>
		<path class="st1" d="M529.4,1270.9c3.1,3,4.6,7.4,4.6,13.2c0,5.7-1.5,10.1-4.6,13.2s-8.6,4.6-16.7,4.6h-16.5v21.7h-6.8v-57.2h23.3
			C520.8,1266.3,526.4,1267.8,529.4,1270.9z M496.2,1272.3v23.6h15.7c4.2,0,7.3-0.5,9.5-1.5s3.7-2.4,4.5-4c0.8-1.7,1.2-3.8,1.2-6.2
			c0-2.5-0.4-4.6-1.2-6.2c-0.8-1.7-2.3-3-4.5-4s-5.4-1.5-9.5-1.5h-15.7V1272.3z"/>
		<path class="st1" d="M546.4,1266.3h23.3c8.1,0,13.7,1.5,16.7,4.6c3.1,3,4.6,7.4,4.6,13.2c0,5-1.1,9-3.4,12
			c-2.3,2.9-6.4,4.8-12.3,5.5l14.3,22h-7.5l-14.1-21.7h-14.7v21.7h-6.8L546.4,1266.3L546.4,1266.3z M583,1277.8
			c-0.8-1.7-2.3-3-4.5-4s-5.4-1.5-9.5-1.5h-15.7v23.6H569c4.2,0,7.3-0.5,9.5-1.5s3.7-2.4,4.5-4c0.8-1.7,1.2-3.8,1.2-6.2
			C584.1,1281.6,583.7,1279.5,583,1277.8z"/>
		<path class="st1" d="M610.3,1272.7v17.9h29v6h-29v20.5h32.4v6.4h-39.3v-57.2H641v6.4L610.3,1272.7L610.3,1272.7z"/>
		<path class="st1" d="M689,1321c-3.9,2.3-8.5,3.5-13.9,3.5c-5.7,0-10.5-1.2-14.4-3.7c-4-2.5-7-5.9-9-10.4s-3-9.7-3-15.6
			s1-11.1,3-15.6s5-8,9-10.4c4-2.5,8.8-3.7,14.4-3.7c5.3,0,9.9,1.2,13.8,3.5c3.9,2.3,6.9,5.6,9.1,9.7l-6.9,1.8
			c-1.1-1.7-2.4-3.2-3.9-4.5s-3.3-2.3-5.3-3s-4.2-1.1-6.7-1.1c-4.3,0-7.9,1-10.8,2.9c-2.9,2-5.1,4.7-6.5,8.2s-2.2,7.6-2.2,12.2
			c0,4.7,0.7,8.8,2.2,12.3c1.4,3.5,3.6,6.2,6.5,8.2s6.5,2.9,10.8,2.9c2.5,0,4.7-0.4,6.8-1.1c2-0.7,3.8-1.7,5.3-3s2.8-2.8,3.9-4.6
			l6.8,1.7C695.9,1315.5,692.9,1318.7,689,1321z"/>
		<path class="st1" d="M709.4,1323.5v-57.2h6.8v57.2H709.4z"/>
		<path class="st1" d="M761.3,1272.9c-2.4-1.4-5.9-2.2-10.5-2.2c-3.5,0-6.4,0.4-8.9,1.3s-4.3,2.1-5.5,3.6s-1.8,3.1-1.8,4.9
			c0,1.7,0.4,3.2,1.3,4.4c0.9,1.2,2.1,2.1,3.7,2.9c1.6,0.7,3.6,1.3,6.1,1.8l10.5,2.1c6.2,1.1,10.7,3,13.6,5.6
			c2.9,2.6,4.3,5.9,4.3,9.9c0,3.1-0.9,6.1-2.6,8.8c-1.7,2.7-4.3,5-7.9,6.7s-7.9,2.6-13,2.6c-6.7,0-11.9-1.2-15.7-3.7
			s-6.3-5.5-7.4-9.1l6.5-1.9c0.8,2.3,2.5,4.3,5.2,5.9c2.6,1.6,6.5,2.4,11.6,2.4c3.6,0,6.6-0.5,9.1-1.6s4.3-2.5,5.5-4.3
			s1.8-3.7,1.8-5.7c0-1.6-0.4-3-1.3-4.2c-0.8-1.2-2.1-2.3-3.9-3.2c-1.8-0.9-4-1.6-6.6-2.1l-10.2-1.9c-6.1-1.2-10.5-2.9-13.3-5.3
			s-4.2-5.7-4.2-10c0-2.9,0.9-5.6,2.6-8.1c1.8-2.4,4.4-4.4,7.9-5.9s7.7-2.2,12.7-2.2c6.1,0,11,1.1,14.6,3.4s6.1,5,7.6,8.3l-6.7,1.9
			C765.4,1276,763.7,1274.3,761.3,1272.9z"/>
		<path class="st1" d="M815.6,1272.9c-2.4-1.4-5.9-2.2-10.5-2.2c-3.5,0-6.4,0.4-8.9,1.3s-4.3,2.1-5.5,3.6s-1.8,3.1-1.8,4.9
			c0,1.7,0.4,3.2,1.3,4.4c0.9,1.2,2.1,2.1,3.7,2.9c1.6,0.7,3.6,1.3,6.1,1.8l10.5,2.1c6.2,1.1,10.7,3,13.6,5.6
			c2.9,2.6,4.3,5.9,4.3,9.9c0,3.1-0.9,6.1-2.6,8.8c-1.7,2.7-4.3,5-7.9,6.7s-7.9,2.6-13,2.6c-6.7,0-11.9-1.2-15.7-3.7
			s-6.3-5.5-7.4-9.1l6.5-1.9c0.8,2.3,2.5,4.3,5.2,5.9c2.6,1.6,6.5,2.4,11.6,2.4c3.6,0,6.6-0.5,9.1-1.6s4.3-2.5,5.5-4.3
			s1.8-3.7,1.8-5.7c0-1.6-0.4-3-1.3-4.2c-0.8-1.2-2.1-2.3-3.9-3.2c-1.8-0.9-4-1.6-6.6-2.1l-10.2-1.9c-6.1-1.2-10.5-2.9-13.3-5.3
			s-4.2-5.7-4.2-10c0-2.9,0.9-5.6,2.6-8.1c1.8-2.4,4.4-4.4,7.9-5.9s7.7-2.2,12.7-2.2c6.1,0,11,1.1,14.6,3.4s6.1,5,7.6,8.3l-6.7,1.9
			C819.7,1276,818,1274.3,815.6,1272.9z"/>
		<path class="st1" d="M839.4,1323.5v-57.2h6.8v57.2H839.4z"/>
		<path class="st1" d="M870.4,1320.7c-4.3-2.5-7.5-5.9-9.7-10.4c-2.2-4.4-3.3-9.6-3.3-15.5c0-5.8,1.1-11,3.3-15.4s5.4-7.9,9.7-10.4
			s9.5-3.8,15.7-3.8c6.1,0,11.3,1.3,15.6,3.8s7.5,6,9.7,10.4s3.3,9.6,3.3,15.4c0,5.9-1.1,11.1-3.3,15.5s-5.4,7.9-9.6,10.4
			c-4.2,2.5-9.5,3.7-15.6,3.7C879.9,1324.4,874.6,1323.1,870.4,1320.7z M898,1315.1c3.2-1.9,5.6-4.6,7.2-8.1
			c1.6-3.5,2.4-7.5,2.4-12.1s-0.8-8.6-2.4-12c-1.6-3.5-4-6.2-7.2-8.1s-7.2-2.9-12-2.9s-8.8,1-12,2.9s-5.6,4.6-7.2,8.1
			c-1.6,3.5-2.4,7.5-2.4,12c0,4.6,0.8,8.7,2.4,12.1c1.6,3.5,4,6.2,7.2,8.1s7.3,2.9,12,2.9C890.8,1318,894.8,1317,898,1315.1z"/>
		<path class="st1" d="M973.9,1323.5H967l-34.4-46.5v46.5h-6.8l-0.1-57.2h6.8l34.6,46.5l0.1-46.5h6.8L973.9,1323.5z"/>
	</g>
</g>
<g>
	<g>
		<path class="st2" d="M357.1,419l-14.6-32.4h-53.3L274.6,419h-13.4L309,314h13.8l47.7,105H357.1z M337.7,375.7l-21.9-48.3
			l-21.6,48.3H337.7z"/>
		<path class="st2" d="M454.7,317.3c5.7,2.2,9.6,5.3,11.8,9.5c2.2,4.1,3.3,9.6,3.3,16.4c0,5.7-1.3,10.6-4,14.6s-7,6.8-13.2,8.4
			c6.4,1.5,10.9,4.3,13.6,8.4s4.1,9.1,4.1,14.9c0,6.8-1.1,12.3-3.4,16.5s-6.3,7.4-12,9.6S441,419,430.6,419h-42.8V314h42.8
			C441,314,449,315.1,454.7,317.3z M446.7,358.1c4-1.5,6.8-3.4,8.2-5.9c1.4-2.4,2.1-5.5,2.1-9.1c0-4.3-0.7-7.8-2.1-10.3
			s-4.1-4.5-8.1-5.8s-9.9-2-17.7-2h-28.6v35.3H429C436.7,360.3,442.6,359.6,446.7,358.1z M446.8,405.9c4.1-1.4,6.9-3.3,8.4-5.9
			c1.5-2.5,2.2-6,2.2-10.5c0-3.9-0.7-7.2-2.2-9.9c-1.5-2.6-4.3-4.8-8.4-6.4s-10-2.4-17.6-2.4h-28.8v37H429
			C436.7,408,442.7,407.3,446.8,405.9z"/>
		<path class="st2" d="M560.6,414.4c-7.2,4.3-15.7,6.4-25.5,6.4c-10.4,0-19.2-2.3-26.5-6.8s-12.7-10.9-16.5-19.1
			c-3.7-8.2-5.6-17.8-5.6-28.7c0-10.8,1.9-20.3,5.6-28.5s9.2-14.6,16.5-19.2s16.1-6.8,26.5-6.8c9.8,0,18.2,2.1,25.4,6.4
			s12.7,10.2,16.6,17.7l-12.7,3.3c-2-3.2-4.4-5.9-7.2-8.3c-2.8-2.3-6-4.2-9.7-5.5s-7.8-2-12.3-2c-7.8,0-14.4,1.8-19.8,5.4
			c-5.4,3.6-9.4,8.6-12,15c-2.7,6.4-4,13.9-4,22.3c0,8.6,1.3,16.1,4,22.5c2.6,6.4,6.7,11.4,12,15c5.4,3.6,12,5.4,19.8,5.4
			c4.6,0,8.7-0.7,12.4-2s7-3.2,9.8-5.6s5.2-5.2,7.2-8.3l12.6,3.2C573.2,404.2,567.7,410.1,560.6,414.4z"/>
		<path class="st2" d="M666.5,320.5c7.3,4.3,12.7,10.4,16.5,18.3c3.7,7.9,5.6,17.1,5.6,27.6c0,10.6-1.9,19.9-5.6,27.7
			c-3.7,7.9-9.2,14-16.5,18.4c-7.3,4.3-16.1,6.5-26.5,6.5h-42V314h42C650.4,314,659.2,316.2,666.5,320.5z M659.8,402.2
			c5.4-3.3,9.4-8.1,12-14.2s4-13.3,4-21.7c0-8.3-1.3-15.4-4-21.5c-2.7-6-6.7-10.7-12-14.1c-5.4-3.3-12-5-19.8-5h-29.4v81.4H640
			C647.8,407.2,654.4,405.5,659.8,402.2z"/>
		<path class="st2" d="M721.4,325.8v32.9h53.1v11h-53.1v37.5h59.5V419h-72V314h68.8v11.8H721.4z"/>
		<path class="st2" d="M810.6,325.8v32.9h52.6v11h-52.6V419H798V314h68.8v11.8H810.6z"/>
		<path class="st2" d="M976,367.5c-0.6,16.5-5,29.7-13,39.4c-8.1,9.8-19.8,14.6-35.3,14.6c-10.6,0-19.5-2.4-26.8-7.1
			s-12.7-11.2-16.4-19.5s-5.5-17.8-5.5-28.6c0-10.7,2-20.2,6-28.5s9.7-14.8,17.3-19.6c7.5-4.7,16.5-7.1,26.9-7.1
			c10.3,0,19.2,2.2,26.6,6.7c7.5,4.5,13.1,10.7,16.9,18.6l-12.7,3.5c-2.9-5.3-6.9-9.4-12.2-12.4s-11.5-4.5-18.6-4.5
			c-7.8,0-14.6,1.8-20.2,5.5c-5.6,3.7-9.9,8.7-12.8,15.3c-2.9,6.5-4.4,14-4.4,22.5s1.3,16,3.9,22.5c2.6,6.5,6.6,11.6,11.9,15.3
			c5.4,3.7,12.1,5.6,20.1,5.6c10.1,0,18.1-3.2,24.2-9.5c6-6.3,9.6-14.7,10.7-25.2h-43.2v-10.8H976C976,365.3,976,366.4,976,367.5z"
			/>
		<path class="st2" d="M1069.8,358.7V314h12.6l0.2,104.9H1070l-0.2-48.3h-60.9V419h-12.6V314h12.6v44.7H1069.8z"/>
		<path class="st2" d="M1109.4,419V314h12.6v105H1109.4z"/>
		<path class="st2" d="M196,535c5.1-3.2,8.7-7.7,10.8-13.5s3.2-13.1,3.2-21.9V444h12.9v55.5c0,16.8-3.8,29.6-11.4,38.6
			c-7.6,9-19.7,13.4-36.3,13.4v-11.8C184,539.7,190.9,538.2,196,535z"/>
		<path class="st2" d="M285.8,488.4l47.5,60.6h-14.9l-40.5-52l-15.7,17.2V549h-12.6V444h12.6v53.9l49.4-53.9h14.9L285.8,488.4z"/>
		<path class="st2" d="M412.1,537.2V549h-61.2V444h12.6v93.2H412.1z"/>
		<path class="st2" d="M441.8,469.3V549h-12.6V444h13.5l44.5,91.4l44.4-91.4h13.5v105h-12.6v-79.5L494,549h-13.5L441.8,469.3z"/>
		<path class="st2" d="M660.3,549h-12.6l-63.1-85.2V549H572l-0.1-105h12.4l63.4,85.4l0.2-85.4h12.6L660.3,549z"/>
		<path class="st2" d="M704.5,543.7c-7.8-4.6-13.8-10.9-17.7-19c-4-8.1-6-17.6-6-28.4c0-10.7,2-20.1,6-28.2s9.9-14.5,17.7-19.1
			s17.4-6.9,28.8-6.9c11.2,0,20.8,2.3,28.6,6.9s13.8,11,17.7,19.1s6,17.5,6,28.2c0,10.8-2,20.3-6,28.4s-9.9,14.4-17.6,19
			c-7.8,4.6-17.4,6.8-28.7,6.8C721.9,550.6,712.3,548.3,704.5,543.7z M755.2,533.5c5.9-3.6,10.4-8.5,13.3-14.9
			c2.9-6.4,4.4-13.8,4.4-22.3c0-8.4-1.5-15.7-4.4-22.1s-7.3-11.3-13.3-14.9c-5.9-3.5-13.3-5.3-21.9-5.3c-8.8,0-16.2,1.8-22.1,5.3
			c-5.9,3.6-10.4,8.5-13.3,14.9c-2.9,6.4-4.4,13.7-4.4,22.1c0,8.5,1.5,15.9,4.4,22.3c2.9,6.4,7.3,11.3,13.3,14.9
			c5.9,3.6,13.3,5.3,22.1,5.3C741.9,538.8,749.3,537,755.2,533.5z"/>
		<path class="st2" d="M879.4,452.4c5.6,5.6,8.4,13.6,8.4,24.2c0,10.5-2.8,18.6-8.4,24.2c-5.6,5.6-15.8,8.4-30.7,8.4h-30.2V549
			h-12.6V444h42.8C863.5,444,873.8,446.8,879.4,452.4z M818.5,455v43.2h28.8c7.6,0,13.5-0.9,17.5-2.8s6.8-4.3,8.2-7.4
			s2.1-6.9,2.1-11.4c0-4.6-0.7-8.4-2.1-11.4c-1.4-3.1-4.2-5.5-8.2-7.4s-9.9-2.8-17.5-2.8L818.5,455L818.5,455z"/>
		<path class="st2" d="M927.9,543.7c-7.8-4.6-13.8-10.9-17.7-19c-4-8.1-6-17.6-6-28.4c0-10.7,2-20.1,6-28.2s9.9-14.5,17.7-19.1
			s17.4-6.9,28.8-6.9c11.2,0,20.8,2.3,28.6,6.9s13.8,11,17.7,19.1s6,17.5,6,28.2c0,10.8-2,20.3-6,28.4s-9.9,14.4-17.6,19
			c-7.8,4.6-17.4,6.8-28.7,6.8C945.3,550.6,935.7,548.3,927.9,543.7z M978.6,533.5c5.9-3.6,10.4-8.5,13.3-14.9
			c2.9-6.4,4.4-13.8,4.4-22.3c0-8.4-1.5-15.7-4.4-22.1s-7.3-11.3-13.3-14.9c-5.9-3.5-13.3-5.3-21.9-5.3c-8.8,0-16.2,1.8-22.1,5.3
			c-5.9,3.6-10.4,8.5-13.3,14.9c-2.9,6.4-4.4,13.7-4.4,22.1c0,8.5,1.5,15.9,4.4,22.3c2.9,6.4,7.3,11.3,13.3,14.9
			c5.9,3.6,13.3,5.3,22.1,5.3C965.3,538.8,972.6,537,978.6,533.5z M962.1,566.6h-10.8v-18.4h10.8V566.6z"/>
		<path class="st2" d="M1029.3,444h42.8c14.8,0,25.1,2.8,30.7,8.3c5.6,5.6,8.4,13.6,8.4,24.2c0,9.2-2.1,16.5-6.3,21.9
			c-4.2,5.4-11.7,8.7-22.5,10l26.2,40.4h-13.8l-25.9-39.8h-27v40h-12.6L1029.3,444L1029.3,444z M1096.3,465.2
			c-1.4-3.1-4.2-5.5-8.2-7.4s-9.9-2.8-17.5-2.8h-28.8v43.2h28.8c7.6,0,13.5-0.9,17.5-2.8s6.8-4.3,8.2-7.4c1.4-3.1,2.1-6.9,2.1-11.4
			C1098.5,472.1,1097.8,468.3,1096.3,465.2z"/>
		<path class="st2" d="M1189.7,456.1c-4.5-2.6-10.9-4-19.2-4c-6.4,0-11.8,0.8-16.3,2.5c-4.5,1.6-7.9,3.8-10.1,6.5s-3.3,5.7-3.3,9
			c0,3.2,0.8,5.9,2.4,8c1.6,2.2,3.9,3.9,6.8,5.2c3,1.3,6.7,2.4,11.1,3.3l19.2,3.8c11.3,2,19.7,5.4,25,10.3c5.3,4.8,8,10.9,8,18.2
			c0,5.7-1.6,11.1-4.7,16.1s-8,9.1-14.5,12.3s-14.5,4.8-23.9,4.8c-12.3,0-21.9-2.3-28.9-6.8c-6.9-4.6-11.5-10.1-13.6-16.7l11.9-3.5
			c1.5,4.2,4.6,7.8,9.5,10.8c4.8,3,11.9,4.5,21.2,4.5c6.6,0,12.1-1,16.7-3s8-4.6,10.2-7.9c2.2-3.2,3.3-6.7,3.3-10.4
			c0-2.9-0.8-5.4-2.3-7.7s-3.9-4.2-7.2-5.8c-3.2-1.6-7.3-2.9-12.2-3.8l-18.8-3.5c-11.1-2.1-19.3-5.4-24.4-9.8s-7.7-10.5-7.7-18.4
			c0-5.4,1.6-10.3,4.8-14.8c3.2-4.5,8.1-8,14.5-10.7s14.2-4.1,23.3-4.1c11.2,0,20.2,2.1,26.8,6.2c6.6,4.1,11.3,9.2,13.9,15.3
			l-12.2,3.5C1197.3,461.9,1194.2,458.8,1189.7,456.1z"/>
		<path class="st2" d="M345.9,585.8V679h-12.6v-93.2h-36.7V574H383v11.8H345.9z"/>
		<path class="st2" d="M417.1,675.2c-7.2-4.2-12.5-10.2-16.1-18c-3.6-7.7-5.3-17-5.3-27.7V574h12.7v55.5c0,12.7,2.9,22.6,8.7,29.7
			c5.8,7.1,14.6,10.6,26.2,10.6c11.7,0,20.4-3.5,26.2-10.6c5.8-7,8.7-16.9,8.7-29.7V574h12.7v55.5c0,10.7-1.8,19.9-5.3,27.7
			c-3.6,7.7-8.9,13.7-16.1,18c-7.2,4.2-15.9,6.4-26.2,6.4C433,681.5,424.2,679.4,417.1,675.2z"/>
		<path class="st2" d="M505.6,574h14l38.6,90.8l38.6-90.8h13.8L565,679h-13.7L505.6,574z"/>
		<path class="st2" d="M618.8,574H633l38.5,90.6L710,574h14.2l38.5,90.6l38.6-90.6h14.2l-45.8,105h-13.8l-38.6-88.4L678.6,679h-14
			L618.8,574z"/>
		<path class="st2" d="M860.6,625.7L825.2,574h14.2l28.6,42.1l28.6-42.1h14.2l-35.5,51.7l37.2,53.3h-15.3l-29.3-43.6L838.7,679
			h-15.3L860.6,625.7z"/>
		<path class="st2" d="M957.4,679v-51l-37.2-54h14l29.4,43.2L993,574h14.3L970,627.9v51L957.4,679L957.4,679z"/>
		<path class="st2" d="M1076.5,585.8h-58.2V574h76.5v5.4l-60.9,87.8h57.7V679h-76.2v-5.2L1076.5,585.8z"/>
		<path class="st2" d="M183.8,731.9c6.6-3,14-4.4,22-4.2c8.2,0.2,14.6,1.5,19.3,3.9s8.1,5.9,10.3,10.7c2.1,4.7,3.2,10.9,3.2,18.7v48
			H226v-12c-1.7,3.7-5.1,6.9-10.2,9.6s-10.8,4.1-17.2,4.1c-10,0-17.3-2.3-22-6.8s-7.1-10.1-7.1-16.9v-2c0-5.4,1.6-10.3,4.9-14.5
			c3.3-4.3,9.1-6.9,17.5-7.7l19.7-2.4c3.8-0.3,6.6-0.7,8.4-1.1c1.8-0.4,3.2-1,4.1-1.8c0.9-0.8,1.4-1.9,1.4-3.4
			c0-2.8-0.8-5.2-2.5-7.5c-1.7-2.2-4.2-3.9-7.4-5.2c-3.2-1.2-7-1.8-11.4-1.8c-5.6,0-10.3,0.8-14.1,2.5c-3.8,1.6-6.3,4.3-7.7,8
			l-11.9-3.8C172.7,739.7,177.1,735,183.8,731.9z M185.9,795.3c2.5,2.4,6.8,3.7,12.7,3.7c5.8,0,10.8-1,14.9-3.1
			c4.1-2.1,7.2-4.6,9.3-7.7c2.1-3.1,3.2-6.1,3.2-9.1c0-2.6,0-4.6,0-6c0-1.3,0-3.3,0-5.8c-1.1,1.3-4,2.3-8.9,3l-4.8,0.6l-17.8,2.1
			c-4,0.5-7.1,1.8-9.2,3.9c-2.1,2.1-3.2,4.7-3.2,7.9v1.3C182.1,789.8,183.4,792.9,185.9,795.3z"/>
		<path class="st2" d="M284.3,806.3c-4.8-2.9-8.5-6.9-11.3-11.8V809h-12.6V699.3H273V744c2.8-4.9,6.5-8.8,11.3-11.8
			s10.5-4.5,17.3-4.5c8.5,0,15.6,1.7,21.2,5.2c5.7,3.5,9.9,8.4,12.6,14.6c2.8,6.3,4.1,13.5,4.1,21.6c0,8.3-1.4,15.5-4.1,21.7
			c-2.8,6.2-7,11.1-12.6,14.5c-5.7,3.5-12.7,5.2-21.2,5.2C294.9,810.7,289.1,809.3,284.3,806.3z M280.7,790.9c5,5.4,11.8,8,20.5,8
			c8.5,0,14.9-2.6,19.2-7.9c4.3-5.2,6.5-12.5,6.5-21.9c0-9.2-2.2-16.5-6.5-21.8s-10.8-8-19.2-8c-8.7,0-15.5,2.7-20.5,8
			c-5,5.4-7.5,12.6-7.5,21.7C273.2,778.3,275.7,785.6,280.7,790.9z"/>
		<path class="st2" d="M407.2,742.4c-3.7-2-8.2-2.9-13.5-2.9c-8.3,0-14.5,2.6-18.8,7.7c-4.2,5.1-6.4,12.5-6.4,22s2.1,16.9,6.4,22
			c4.2,5.1,10.5,7.7,18.9,7.7c5.2,0,9.6-1,13.4-3c3.7-2,6.7-4.8,8.9-8.3l12.2,3.7c-2.9,6-7.2,10.8-13,14.2s-13,5.2-21.5,5.2
			c-8.4,0-15.4-1.7-21.1-5.2c-5.7-3.4-9.9-8.3-12.7-14.5c-2.8-6.2-4.2-13.5-4.2-21.9s1.4-15.7,4.2-21.9c2.8-6.2,7-11,12.7-14.5
			c5.7-3.4,12.6-5.2,20.9-5.2c8.5,0,15.6,1.7,21.4,5.1c5.8,3.4,10.1,8.1,13.1,14.2l-12.2,4C413.8,747.2,410.9,744.4,407.2,742.4z"/>
		<path class="st2" d="M460.9,805.5c-5.7-3.5-9.9-8.3-12.6-14.5c-2.8-6.2-4.1-13.4-4.1-21.7c0-8.2,1.4-15.4,4.1-21.6
			c2.8-6.3,7-11.1,12.6-14.6c5.7-3.5,12.7-5.2,21.2-5.2c6.9,0,12.7,1.5,17.4,4.5c4.7,3,8.5,6.9,11.2,11.8v-44.7h12.6V809h-12.6
			v-14.5c-2.8,5-6.5,8.9-11.2,11.8c-4.7,2.9-10.5,4.4-17.4,4.4C473.6,810.7,466.6,809,460.9,805.5z M463.4,791.1
			c4.3,5.2,10.8,7.9,19.2,7.9c8.7,0,15.5-2.7,20.5-8c5-5.4,7.5-12.6,7.5-21.7c0-9.1-2.5-16.3-7.5-21.7s-11.8-8-20.5-8
			c-8.5,0-14.9,2.7-19.2,8c-4.3,5.3-6.5,12.6-6.5,21.8C456.8,778.5,459,785.8,463.4,791.1z"/>
		<path class="st2" d="M562.2,792.4c4.3,4.3,10.8,6.5,19.2,6.5c4,0,7.5-0.4,10.3-1.4c2.9-0.9,5.1-2,6.8-3.3s3.6-3.1,5.7-5.3
			l10.7,6.4c-2.4,3.3-5.1,6-7.9,8.3c-2.8,2.2-6.3,4-10.5,5.2c-4.2,1.3-9.2,1.9-15.2,1.9c-9,0-16.4-1.7-22.3-5.2
			c-5.8-3.4-10.1-8.2-12.9-14.4c-2.8-6.1-4.1-13.5-4.1-21.9c0-8.5,1.3-15.8,4-21.9c2.6-6.1,6.9-10.9,12.6-14.4
			c5.8-3.4,13.1-5.2,22-5.2c8.8,0,16,1.7,21.5,5.2c5.6,3.4,9.6,8.2,12.2,14.4c2.5,6.1,3.8,13.5,3.8,21.9c0,1.3-0.2,2.8-0.5,4.5
			h-62.8C555.5,781.8,557.9,788.1,562.2,792.4z M598.7,745.8c-4-4.2-9.9-6.3-17.9-6.3c-8.2,0-14.3,2-18.3,6s-6.5,10-7.3,17.8h50.1
			C604.9,755.8,602.7,750,598.7,745.8z"/>
		<path class="st2" d="M676.3,705.6c-1.2-0.2-2.3-0.4-3.5-0.6c-4.9-0.4-8.9-0.1-11.9,0.9c-3.1,1-5.4,3.1-7.1,6.2
			c-1.6,3.1-2.5,7.7-2.5,13.8v3.7h20.2v11.6h-20.2v68.5h-12.6v-68.5h-11v-11.6h11v-4.3c0-8,1.2-14.3,3.6-19.1
			c2.4-4.8,5.9-8.2,10.7-10.3c4.7-2.1,10.6-2.9,17.7-2.5c1.5,0.1,3,0.2,4.5,0.4s2.8,0.4,4,0.7l-2.2,11.3L676.3,705.6z"/>
		<path class="st2" d="M733.7,732.1c4.7,2.9,8.5,6.9,11.2,11.8v-14.5h12.6v75c0,12.9-3.1,22.9-9.2,30.1
			c-6.1,7.1-16.2,10.7-30.1,10.7c-9.9,0-17.4-1.6-22.7-4.9c-5.3-3.3-9.5-8.3-12.6-14.9l11.4-5.1c2.1,4.5,5,7.8,8.5,10
			s8.6,3.3,15,3.3c9.9,0,16.8-2.4,20.9-7.3c4.1-4.9,6.1-12.1,6.1-21.8v-10c-2.8,4.9-6.5,8.8-11.2,11.8s-10.5,4.5-17.4,4.5
			c-8.5,0-15.6-1.7-21.2-5.2c-5.7-3.5-9.9-8.4-12.6-14.6c-2.8-6.3-4.1-13.5-4.1-21.6c0-8.3,1.4-15.5,4.1-21.7
			c2.8-6.2,7-11,12.6-14.5c5.7-3.5,12.7-5.2,21.2-5.2C723.2,727.7,729,729.2,733.7,732.1z M697.6,791c4.3,5.3,10.8,7.9,19.2,7.9
			c8.7,0,15.5-2.7,20.5-8c5-5.4,7.5-12.6,7.5-21.7c0-9.1-2.5-16.3-7.5-21.7s-11.8-8-20.5-8c-8.5,0-14.9,2.6-19.2,7.9
			c-4.3,5.2-6.5,12.5-6.5,21.9C691,778.4,693.2,785.7,697.6,791z"/>
		<path class="st2" d="M781.3,809V699.3h12.6v45.3c2.9-5.1,6.8-9.2,11.8-12.2c5-3.1,11.1-4.6,18-4.6c11.7,0,20.4,3.5,26.1,10.5
			s8.6,16.7,8.6,29.1V809h-12.7v-41.5c0-6-0.8-11.2-2.5-15.3c-1.6-4.2-4.1-7.3-7.4-9.5c-3.3-2.1-7.5-3.2-12.6-3.2
			c-5.7,0-10.8,1.2-15.3,3.7c-4.5,2.4-7.9,5.9-10.3,10.4c-2.4,4.5-3.7,9.7-3.7,15.7l-0.2,39.8h-12.4V809z"/>
		<path class="st2" d="M881.8,712.6c-1.5-1.5-2.2-3.3-2.2-5.4c0-2.1,0.7-3.9,2.2-5.5c1.5-1.5,3.2-2.3,5.2-2.3c2.1,0,3.9,0.8,5.4,2.3
			s2.2,3.4,2.2,5.5s-0.7,3.9-2.2,5.4s-3.3,2.2-5.4,2.2C885.1,714.8,883.3,714.1,881.8,712.6z M893.3,809h-12.6v-79.5h12.6V809z"/>
		<path class="st2" d="M921.1,839.5c-4.7,4.7-11.4,6.7-20.2,6.2c-1.5,0-3-0.1-4.5-0.3s-2.9-0.5-4.1-0.8l1.9-11.1l2.9,0.3
			c0.5,0,1,0.1,1.4,0.2c5.7,0.7,10-0.1,12.8-2.5s4.2-7.2,4.2-14.2v-87.8h12.6v88.4C928.1,827.6,925.8,834.8,921.1,839.5z
			 M916.5,712.6c-1.5-1.5-2.2-3.3-2.2-5.4c0-2.1,0.7-3.9,2.2-5.5c1.5-1.5,3.2-2.3,5.2-2.3c2.1,0,3.9,0.8,5.4,2.3s2.2,3.4,2.2,5.5
			s-0.7,3.9-2.2,5.4s-3.3,2.2-5.4,2.2C919.7,714.8,918,714.1,916.5,712.6z"/>
		<path class="st2" d="M950.8,703.2h12.6v60.3l37.7-34h15.7l-31.6,28.8l31.6,50.7h-13.5l-26.9-43l-12.9,12.1l-0.2,30.8h-12.6
			L950.8,703.2L950.8,703.2z"/>
		<path class="st2" d="M1063.1,809.4c-1.5,0.2-3,0.4-4.5,0.5c-10.5,0.4-18.3-2.1-23.4-7.5s-7.6-14-7.6-25.9v-77.3h12.6v77
			c0,8.8,1.6,14.8,4.8,18c3.2,3.2,8.5,4.5,15.7,3.7c0.4-0.1,0.8-0.2,1.3-0.2l2.9-0.5l2.2,11.3C1065.9,809,1064.6,809.2,1063.1,809.4
			z"/>
		<path class="st2" d="M1139.1,747c-3.3-4.6-8.9-6.9-16.7-6.9c-5.6,0-10.7,1.5-15.3,4.4c-4.6,2.9-8.2,6.9-10.9,11.9
			c-2.7,5-4,10.5-4,16.5v36.7h-12.6v-79.5h12.6v16.5c2.2-3.6,4.7-6.7,7.4-9.3c2.7-2.6,6-4.7,10-6.4s8.6-2.5,13.9-2.5
			c8.1,0,14.6,1.8,19.7,5.3c5.1,3.6,8.7,8.8,11,15.8c3.6-6.8,8.1-12,13.4-15.7c5.4-3.7,12.1-5.5,20.1-5.5c12,0,20.5,3.4,25.5,10.2
			s7.6,16.6,7.6,29.4v41.7h-12.6v-41.5c0-9.4-1.6-16.5-4.8-21.1c-3.2-4.6-8.8-6.9-16.8-6.9c-5.4,0-10.4,1.4-14.9,4.2
			c-4.6,2.8-8.2,6.6-10.9,11.4c-2.7,4.8-4.1,10.1-4.2,15.8v38H1144V768C1144,758.7,1142.4,751.6,1139.1,747z"/>
		<path class="st2" d="M196.5,876.6c-3.3-4.8-8.9-7.2-16.7-7.2c-5.6,0-10.7,1.5-15.3,4.5s-8.2,7.1-10.9,12.3s-4,10.8-4,16.7v36.7
			H137v-79.5h12.6v16.5c2.3-3.7,4.8-6.9,7.5-9.6c2.6-2.7,6-5,10-6.8s8.6-2.7,13.8-2.7c11.9,0,20.4,3.5,25.4,10.5s7.6,17,7.6,29.9
			v41.7h-12.6v-41.5C201.4,888.6,199.8,881.4,196.5,876.6z"/>
		<path class="st2" d="M250.1,935.5c-5.9-3.5-10.4-8.4-13.4-14.6c-3-6.3-4.5-13.5-4.5-21.6c0-8.2,1.5-15.4,4.5-21.6
			c3-6.3,7.5-11.1,13.4-14.6s13.1-5.2,21.6-5.2s15.7,1.7,21.6,5.2s10.4,8.4,13.4,14.6c3,6.3,4.5,13.5,4.5,21.6
			c0,8.2-1.5,15.4-4.5,21.6c-3,6.3-7.5,11.1-13.4,14.6s-13.1,5.2-21.6,5.2S256,939,250.1,935.5z M291.6,921c4.7-5.3,7-12.6,7-21.8
			s-2.3-16.5-7-21.8s-11.3-8-19.9-8s-15.2,2.7-19.9,8c-4.7,5.3-7,12.6-7,21.8s2.3,16.5,7,21.8c4.7,5.3,11.3,7.9,19.9,7.9
			S286.9,926.3,291.6,921z"/>
		<path class="st2" d="M393.7,863c5.7,3.5,9.9,8.3,12.6,14.5c2.8,6.2,4.1,13.4,4.1,21.7c0,8.2-1.4,15.4-4.1,21.6
			c-2.8,6.3-7,11.1-12.6,14.6c-5.7,3.5-12.7,5.2-21.2,5.2c-6.8,0-12.6-1.5-17.3-4.5c-4.8-3-8.5-6.9-11.3-11.8V975h-12.6V859.5h12.6
			V874c2.8-5,6.5-8.9,11.3-11.8c4.8-2.9,10.5-4.4,17.3-4.4C381,857.7,388,859.5,393.7,863z M351.5,920.9c5,5.4,11.8,8,20.5,8
			c8.5,0,14.9-2.6,19.2-7.9c4.3-5.3,6.5-12.6,6.5-21.8c0-9.3-2.2-16.6-6.5-21.9c-4.3-5.2-10.8-7.9-19.2-7.9c-8.7,0-15.5,2.7-20.5,8
			c-5,5.4-7.5,12.6-7.5,21.7C344,908.3,346.5,915.6,351.5,920.9z"/>
		<path class="st2" d="M482.3,861.7c4.7,2.7,8.4,6.4,11.1,11.1v-13.4H506v115.8h-12.6v-49.6c-2.7,4.7-6.3,8.3-11.1,11.1
			c-4.7,2.7-10.6,4.1-17.6,4.1c-8.5,0-15.6-1.7-21.2-5.2c-5.7-3.5-9.9-8.4-12.6-14.6c-2.8-6.3-4.1-13.5-4.1-21.6
			c0-8.3,1.4-15.5,4.1-21.7c2.8-6.2,7-11,12.6-14.5c5.7-3.5,12.7-5.2,21.2-5.2C471.7,857.7,477.6,859,482.3,861.7z M445.9,921
			c4.3,5.3,10.8,7.9,19.2,7.9c8.7,0,15.5-2.7,20.5-8c5-5.4,7.5-12.6,7.5-21.7c0-9.1-2.5-16.3-7.5-21.7s-11.8-8-20.5-8
			c-8.5,0-14.9,2.6-19.2,7.9c-4.3,5.2-6.5,12.5-6.5,21.9C439.4,908.4,441.6,915.7,445.9,921z"/>
		<path class="st2" d="M573.5,870.2c-0.6-0.1-1.3-0.1-2.1-0.1c-5.6,0-10.7,1.5-15.3,4.4s-8.2,6.9-10.9,11.9s-4,10.5-4,16.5v36.7
			h-12.6v-79.5h12.6v16.5c2.2-3.6,4.7-6.7,7.4-9.3s6-4.7,10-6.4s8.6-2.5,13.9-2.5c1.3,0,2.4,0,3.5,0.1s2.1,0.2,3.2,0.4l-3.8,11.6
			C574.7,870.3,574.1,870.3,573.5,870.2z"/>
		<path class="st2" d="M628,871.8c-3.4-1.3-7.6-2-12.7-2c-6.3,0-11.1,1-14.6,3s-5.2,4.6-5.2,7.8c0,1.8,0.6,3.3,1.7,4.5
			c1.1,1.2,2.8,2.1,5.2,2.9c2.3,0.8,5,1.4,8.1,1.8l13.2,2.1c9.2,1.5,15.6,4.4,19.2,8.7c3.6,4.3,5.3,9.4,5.3,15.1
			c0,3.8-1.1,7.7-3.2,11.5c-2.1,3.9-5.6,7.1-10.5,9.6s-11.1,3.8-18.6,3.8c-6.3,0-11.6-0.6-16-1.9c-4.4-1.3-8.1-3.1-11.1-5.6
			c-3-2.4-5.7-5.4-8-8.7l9.2-7.3c1.6,2.3,3.3,4.3,5.2,5.9c1.9,1.6,4.4,2.9,7.7,4.1c3.3,1.1,7.4,1.7,12.4,1.7c4.7,0,8.5-0.6,11.5-1.9
			c3-1.3,5.2-2.9,6.7-4.8c1.4-2,2.1-4,2.1-6.1c0-3.6-1-6.3-3-8.2s-5.7-3.2-11.1-4.1l-12.4-1.9c-9.6-1.5-16.4-4.1-20.2-7.7
			c-3.8-3.7-5.7-8.2-5.7-13.6c0-3.9,1.1-7.6,3.3-11s5.8-6.2,10.8-8.3c5-2.2,11.3-3.3,19.1-3.3c3.9,0,7.6,0.4,11.1,1.3
			c3.5,0.8,6.9,2.1,10.1,3.9c3.2,1.7,6.4,4,9.5,6.6l-9.7,8C634.5,875.1,631.4,873.1,628,871.8z"/>
		<path class="st2" d="M705.7,939.9c-1.5,0.2-3,0.4-4.5,0.5c-10.4,0.5-18.2-2-23.3-7.6s-7.7-14.3-7.7-26.3V871h-11.9v-11.6h12.4
			l2.4-30.2h9.7v30.2h20.4V871h-20.4v35.1c0,8.8,1.6,14.9,4.8,18.3c3.2,3.4,8.4,4.7,15.5,4c1.2-0.1,2.3-0.3,3.3-0.5l1-0.2l2.2,11.3
			C708.6,939.4,707.2,939.7,705.7,939.9z"/>
		<path class="st2" d="M738.5,922.5c3.3,4.8,8.8,7.2,16.7,7.2c5.6,0,10.7-1.5,15.3-4.5s8.2-7.1,10.9-12.3c2.6-5.2,4-10.8,4-16.7
			v-36.7H798V939h-12.6v-16.5c-2.3,3.7-4.8,6.9-7.5,9.6c-2.7,2.7-6,5-10,6.8s-8.6,2.7-13.8,2.7c-11.9,0-20.4-3.5-25.4-10.5
			c-5.1-7-7.6-17-7.6-29.9v-41.7h12.6V901C733.6,910.5,735.2,917.7,738.5,922.5z"/>
		<path class="st2" d="M861.2,939h-12.7l-36.1-79.5H825l29.9,65.7l29.9-65.7h12.6L861.2,939z"/>
		<path class="st2" d="M995.1,922.3l21.9-62.8h12.9l-27.8,79.5h-12.9l-23.1-59.6L943,939h-12.7l-27.8-79.5h12.7l22.1,62.8l24.2-62.8
			h9.5L995.1,922.3z"/>
		<path class="st2" d="M1066.7,897.2l-28.5-37.7h13.7l22.1,29.3l22.1-29.3h13.7l-28.3,37.7L1113,939h-13.8l-25.1-33.2L1049,939h-14
			L1066.7,897.2z"/>
		<path class="st2" d="M1163.7,939l-3.5,9.2c-1,2.3-1.9,4.7-2.9,7c-2.3,5.6-4.6,9.8-6.7,12.6s-4.9,4.9-8.3,6.4
			c-3.4,1.4-8,2-13.6,1.7c-1.6,0-3.3-0.1-5.2-0.4c-1.9-0.3-3.5-0.6-4.8-1l2.5-11.1l3.3,0.6c0.6,0,1.3,0.1,1.9,0.2
			c3.6,0.4,6.5,0.3,8.7-0.2c2.2-0.6,4-1.6,5.4-3.1s2.9-3.9,4.5-7.3c0.8-1.8,1.7-3.7,2.5-5.7l3.5-8.7l-36.3-79.5h12.7l29.9,65.7
			l29.9-65.7h12.6L1163.7,939z"/>
		<path class="st2" d="M1265.1,859.5v9.9l-44.5,57.9h43.2V939h-59v-9.7l44.8-58h-43.9v-11.8H1265.1z"/>
		<path class="st2" d="M294.9,1059.5c-6.7-10-10-23.4-10-40.1c0-16.6,3.3-30,10-40.1s17.5-15.1,32.4-15.1s25.7,5,32.4,15.1
			c6.6,10.1,9.9,23.4,9.9,40.1s-3.3,30.1-9.9,40.1s-17.4,15-32.4,15C312.4,1074.5,301.6,1069.5,294.9,1059.5z M350.2,1051
			c4.5-7.8,6.7-18.4,6.7-31.6c0-13.1-2.2-23.6-6.7-31.5c-4.5-7.8-12.1-11.8-22.9-11.8s-18.5,3.9-23,11.8c-4.5,7.8-6.8,18.3-6.8,31.5
			c0,13.3,2.3,23.8,6.8,31.6c4.5,7.8,12.2,11.8,23,11.8C338.1,1062.7,345.8,1058.8,350.2,1051z"/>
		<path class="st2" d="M406.7,1072l0.2-90.3l-16.2,14.8l-7.6-8.6l23.2-20.8h13V1072H406.7z"/>
		<path class="st2" d="M436.6,1057.8c1.9-4.2,5.2-8.6,9.9-13.2c4.7-4.6,11.3-9.4,19.9-14.6l16.4-10.2c1.8-1.3,3.5-2.4,5.2-3.5
			c4.2-3.1,7.3-6.1,9.1-9.2c1.8-3.1,2.7-6.9,2.7-11.6c0-3-1-6-2.9-9.1c-2-3.1-4.8-5.6-8.5-7.6s-8.2-2.9-13.4-2.9
			c-7.7,0-13.5,1.3-17.4,3.8s-6.3,5.7-7.2,9.4l-12.2-3.3c1.1-3.9,3-7.5,5.9-10.7s6.9-5.8,12.1-7.9c5.2-2.1,11.5-3.1,18.9-3.1
			c8.1,0,14.9,1.6,20.5,4.7c5.6,3.1,9.9,7.1,12.7,11.9c2.9,4.8,4.3,9.7,4.3,14.7c0,5.1-0.8,9.5-2.3,13.2s-4.1,7.2-7.6,10.5
			c-3.6,3.3-8.7,7-15.3,11.1l-16.4,10.3c-5.3,3.4-9.7,6.7-13.2,9.8c-3.5,3.1-6,6.4-7.5,9.8h61.1v11.8H434
			C433.7,1066.8,434.7,1062.1,436.6,1057.8z"/>
		<path class="st2" d="M574.9,1006.6c4.3-3,6.5-6.9,6.5-11.8c0-5.4-2.2-9.9-6.6-13.4c-4.4-3.5-10.5-5.3-18.2-5.3
			c-6.1,0-11.3,1.2-15.3,3.7c-4.1,2.5-6.8,5.6-8.2,9.5l-12.4-3.5c1.8-6.3,5.9-11.4,12.2-15.5s14.2-6.1,23.8-6.1
			c7.8,0,14.6,1.3,20.3,3.9c5.7,2.6,10,6.1,12.9,10.6s4.4,9.4,4.4,14.9c0,4.8-1.2,9-3.6,12.8c-2.4,3.8-5.9,6.8-10.4,9.1
			c5.6,2.3,9.9,5.8,12.8,10.3c2.9,4.5,4.4,9.7,4.4,15.7c0,6.3-1.5,11.9-4.6,16.9s-7.7,8.9-13.8,11.8s-13.5,4.4-22.3,4.4
			c-6.8,0-12.8-1-18-2.9s-9.5-4.5-12.8-7.8s-5.8-7-7.2-11.1l12.2-3.5c1.9,3.6,5.1,6.7,9.5,9.3c4.5,2.6,9.9,3.9,16.2,3.9
			c5.8,0,10.8-1,15-2.9c4.2-2,7.4-4.6,9.6-7.8c2.2-3.2,3.3-6.7,3.3-10.4c0-5.8-2.4-10.5-7.2-14.2c-4.8-3.6-11.7-5.4-20.7-5.2h-2.4
			v-10.8h2.4C564.4,1011.1,570.5,1009.6,574.9,1006.6z"/>
		<path class="st2" d="M658.7,1072v-28.1h-53.4v-8.7l49.9-68.1h16.1v65.8h10.2v11h-10.2v28.1L658.7,1072L658.7,1072z M658.8,1032.9
			v-52l-38.3,52H658.8z"/>
		<path class="st2" d="M699.8,1068.5c-6.4-4-10.8-9.3-13.3-16l12.2-3.5c2.1,3.8,5.3,7,9.6,9.5s9.5,3.7,15.7,3.7c5.8,0,10.8-1,15-3
			s7.4-4.8,9.5-8.4c2.2-3.6,3.3-7.7,3.3-12.2c0.1-6.9-2.3-12.3-7.2-16.3c-4.9-4-11.8-6-20.7-6c-3.9,0-7.5,0.4-10.7,1.2s-6,2-8.4,3.6
			l-10.8-7.8l14-46.3h51.5v11.8h-43.4l-8.3,27.7c4.8-1.5,10.1-2.2,16.1-2.2c13.2,0,23.3,3.1,30.2,9.2c6.9,6.1,10.3,14.5,10.3,25.1
			c0,7-1.5,13.2-4.5,18.6s-7.6,9.6-13.7,12.7c-6.1,3.1-13.5,4.6-22.3,4.6C714.3,1074.5,706.2,1072.5,699.8,1068.5z"/>
		<path class="st2" d="M791,1069.8c-6.1-3.1-10.8-7.5-14.1-13.2c-3.2-5.7-4.8-12.2-4.8-19.6c0-12.5,2.4-23.5,7.2-33.1
			c4.8-9.5,11.7-17.5,20.6-24c8.9-6.5,19.7-11.7,32.3-15.6l3.5,12.2c-11.8,3.6-21.5,8.4-29.1,14.4s-12.9,12.7-15.7,20.3
			c1.9-2,4.9-3.7,9-5s8.5-2,13.3-2c13.1,0,23.1,3,29.9,9.1c6.8,6.1,10.2,14.5,10.2,25.2c0,7-1.5,13.2-4.6,18.6s-7.6,9.6-13.7,12.7
			s-13.5,4.6-22.3,4.6C804.3,1074.5,797.1,1072.9,791,1069.8z M827.6,1059.2c4.2-2,7.4-4.8,9.5-8.4c2.2-3.6,3.3-7.7,3.3-12.2
			c0.1-6.9-2.3-12.3-7.2-16.3c-4.9-4-11.8-6-20.7-6c-8.8,0-15.7,1.8-20.7,5.4c-5,3.6-7.4,8.8-7.3,15.6c0.1,4.6,1.2,8.7,3.4,12.6
			c2.2,3.8,5.4,6.8,9.5,9.1c4.2,2.2,9.2,3.3,15,3.3C818.4,1062.3,823.4,1061.3,827.6,1059.2z"/>
		<path class="st2" d="M928.7,967l-0.5,8.7l-44,96h-12.7l42.6-93h-54.5V967H928.7z"/>
		<path class="st2" d="M956.4,1070.1c-6.1-2.9-10.7-6.9-13.8-11.8c-3.1-5-4.6-10.6-4.6-16.9c0-5.9,1.5-11.2,4.5-15.7
			c3-4.5,7.2-7.9,12.7-10.3c-4.6-2.3-8.1-5.4-10.5-9.1c-2.4-3.8-3.7-8-3.7-12.8c0-5.5,1.5-10.5,4.5-14.9c3-4.5,7.3-8,13-10.6
			s12.4-3.9,20.3-3.9c7.7,0,14.4,1.3,20.1,3.9c5.7,2.6,10,6.1,12.9,10.6s4.4,9.4,4.4,14.9c0,4.8-1.2,9-3.6,12.8
			c-2.4,3.8-5.9,6.8-10.4,9.1c5.5,2.3,9.8,5.8,12.7,10.3c3,4.5,4.5,9.7,4.5,15.7c0,6.3-1.5,11.9-4.6,16.9s-7.7,8.9-13.8,11.8
			s-13.5,4.4-22.2,4.4C969.9,1074.5,962.5,1073.1,956.4,1070.1z M993.7,1059.6c4.2-1.9,7.4-4.3,9.6-7.5c2.2-3.1,3.3-6.5,3.3-10.3
			c0-5.8-2.4-10.6-7.3-14.4c-4.9-3.8-11.7-5.6-20.5-5.6c-8.9,0-15.8,1.9-20.7,5.6c-4.9,3.8-7.3,8.6-7.3,14.4c0,3.8,1.1,7.3,3.3,10.3
			c2.2,3.1,5.4,5.5,9.5,7.4c4.2,1.9,9.2,2.8,15.2,2.8C984.5,1062.4,989.4,1061.5,993.7,1059.6z M992.1,1008.8c3.7-1.5,6.5-3.5,8.4-6
			s2.9-5.4,2.9-8.6c0-5.4-2.2-9.8-6.5-13.1s-10.4-5-18.1-5c-7.8,0-13.9,1.7-18.3,5c-4.3,3.3-6.5,7.7-6.5,13.1c0,3.2,0.9,6,2.8,8.6
			c1.9,2.5,4.7,4.6,8.4,6c3.8,1.5,8.3,2.2,13.6,2.2C983.9,1011.1,988.4,1010.3,992.1,1008.8z"/>
		<path class="st2" d="M1092.1,967.9c6.1,3.1,10.8,7.5,14.1,13.2c3.2,5.7,4.8,12.2,4.8,19.6c0,12.5-2.4,23.5-7.2,33.1
			c-4.8,9.5-11.7,17.5-20.6,24s-19.7,11.7-32.3,15.6l-3.5-12.2c11.8-3.6,21.5-8.4,29.1-14.4s12.9-12.7,15.7-20.3c-1.9,2-4.9,3.7-9,5
			c-4.1,1.3-8.5,2-13.3,2c-13.1,0-23.1-3-29.9-9.1s-10.2-14.5-10.2-25.2c0-7,1.5-13.2,4.6-18.6c3.1-5.4,7.6-9.6,13.7-12.7
			c6-3.1,13.5-4.6,22.3-4.6C1078.8,963.2,1086,964.8,1092.1,967.9z M1055.5,978.5c-4.2,2-7.4,4.8-9.5,8.4c-2.2,3.6-3.3,7.7-3.3,12.2
			c-0.1,6.9,2.3,12.3,7.2,16.3c4.9,4,11.8,6,20.7,6c8.8,0,15.7-1.8,20.7-5.4c5-3.6,7.4-8.8,7.3-15.6c-0.1-4.6-1.2-8.7-3.4-12.6
			c-2.2-3.8-5.4-6.8-9.5-9.1c-4.2-2.2-9.2-3.3-15-3.3C1064.7,975.5,1059.6,976.5,1055.5,978.5z"/>
	</g>
</g>
<polygon class="st1" points="1094.8,796.3 1145.8,833.4 1208.9,833.4 1228.3,893.4 1279.3,930.4 1259.9,990.4 1279.3,1050.3 
	1228.3,1087.4 1208.9,1147.3 1145.8,1147.3 1094.8,1184.4 1043.8,1147.3 980.8,1147.3 961.3,1087.4 910.3,1050.3 929.8,990.4 
	910.3,930.4 961.3,893.4 980.8,833.4 1043.8,833.4 "/>
<g>
	<path class="st0" d="M992,993.3l2.6,10.8l28.9-7l3.7,15.4l-28.9,7l5.6,23.3l-19.6,4.7l-16-65.9l50.4-12.2l4,16.5L992,993.3z"/>
	<path class="st0" d="M1024.6,968l37-9c8.5-2.1,15.2-1.5,20.1,1.8s8.3,8.6,10.1,16.1c1.4,5.9,1.4,10.9-0.2,15.2
		c-1.5,4.3-4.8,7.7-9.9,10.3l20.9,16.5l-20.6,5l-19.8-15.7l-6.8,1.6l4.7,19.4l-19.6,4.7L1024.6,968z M1071.1,976.9
		c-0.6-0.9-1.5-1.4-2.8-1.5s-3.3,0.2-5.9,0.8l-14.2,3.4l3.5,14.4l14.2-3.4c2.7-0.6,4.5-1.3,5.7-2c1.1-0.7,1.7-1.5,1.9-2.6
		c0.1-1.1-0.1-2.6-0.6-4.7C1072.3,979.3,1071.7,977.8,1071.1,976.9z"/>
	<path class="st0" d="M1116.2,963.2l2,8.2l32-7.7l3.7,15.4l-32,7.7l2.3,9.4l34.9-8.4l4,16.5l-54.4,13.2l-16-65.9l53.4-12.9l4,16.5
		L1116.2,963.2z"/>
	<path class="st0" d="M1175.9,948.8l2,8.2l32-7.7l3.7,15.4l-32,7.7l2.3,9.4l34.9-8.4l4,16.5l-54.4,13.2l-16-65.9l53.4-12.9l4,16.5
		L1175.9,948.8z"/>
</g>
</svg>
